<?xml version="1.0" encoding="UTF-8" standalone="no"?><!-- Generator: Gravit.io --><svg xmlns="http://www.w3.org/2000/svg" xmlns:xlink="http://www.w3.org/1999/xlink" style="isolation:isolate" viewBox="599.134 223.902 520.732 520.732" width="520.732pt" height="520.732pt"><circle vector-effect="non-scaling-stroke" cx="859.4995529779592" cy="484.26826388398905" r="260.3658680580054" fill="rgb(143,240,240)"/><ellipse vector-effect="non-scaling-stroke" cx="856.1813709173454" cy="499.9958099142707" rx="203.58628285694556" ry="213.49999999999997" fill="none"/><g clip-path="url(#_clipPath_JzXytdpXslWDX6dIQINuFbfF0TvqNGTS)"><text transform="matrix(0.459,-0.888,0.888,0.459,650.001,373.706)" style="font-family:'Comic Neue';font-weight:700;font-size:60px;font-style:normal;fill:#000000;stroke:none;">T</text><text transform="matrix(0.58,-0.815,0.815,0.58,664.278,345.626)" style="font-family:'Comic Neue';font-weight:700;font-size:60px;font-style:normal;fill:#000000;stroke:none;">H</text><text transform="matrix(0.724,-0.69,0.69,0.724,690.019,311.35)" style="font-family:'Comic Neue';font-weight:700;font-size:60px;font-style:normal;fill:#000000;stroke:none;">E </text><text transform="matrix(0.892,-0.451,0.451,0.892,733.643,274.754)" style="font-family:'Comic Neue';font-weight:700;font-size:60px;font-style:normal;fill:#000000;stroke:none;">B</text><text transform="matrix(0.965,-0.261,0.261,0.965,766.408,257.974)" style="font-family:'Comic Neue';font-weight:700;font-size:60px;font-style:normal;fill:#000000;stroke:none;">O</text><text transform="matrix(0.994,-0.105,0.105,0.994,803.475,248.279)" style="font-family:'Comic Neue';font-weight:700;font-size:60px;font-style:normal;fill:#000000;stroke:none;">B</text><text transform="matrix(0.994,0.105,-0.105,0.994,840.075,244.924)" style="font-family:'Comic Neue';font-weight:700;font-size:60px;font-style:normal;fill:#000000;stroke:none;">A</text><text transform="matrix(0.976,0.219,-0.219,0.976,872.037,248.561)" style="font-family:'Comic Neue';font-weight:700;font-size:60px;font-style:normal;fill:#000000;stroke:none;">-</text><text transform="matrix(0.917,0.398,-0.398,0.917,896.231,253.513)" style="font-family:'Comic Neue';font-weight:700;font-size:60px;font-style:normal;fill:#000000;stroke:none;">M</text><text transform="matrix(0.811,0.585,-0.585,0.811,940.124,273.926)" style="font-family:'Comic Neue';font-weight:700;font-size:60px;font-style:normal;fill:#000000;stroke:none;">A</text><text transform="matrix(0.724,0.69,-0.69,0.724,966.738,293.662)" style="font-family:'Comic Neue';font-weight:700;font-size:60px;font-style:normal;fill:#000000;stroke:none;">B</text><text transform="matrix(0.58,0.815,-0.815,0.58,992.577,319.712)" style="font-family:'Comic Neue';font-weight:700;font-size:60px;font-style:normal;fill:#000000;stroke:none;">O</text><text transform="matrix(0.417,0.909,-0.909,0.417,1014.362,351.268)" style="font-family:'Comic Neue';font-weight:700;font-size:60px;font-style:normal;fill:#000000;stroke:none;">B</text></g><defs><clipPath id="_clipPath_JzXytdpXslWDX6dIQINuFbfF0TvqNGTS"><rect x="0" y="0" width="446.751" height="174.128" transform="matrix(1,0,0,1,634.065,246.219)"/></clipPath></defs><circle vector-effect="non-scaling-stroke" cx="859.6625278205429" cy="498.2031990432786" r="213.50000000000006" fill="none"/><g><path d=" M 957 457.191 Q 1000.861 455.25 1018 473.191 Q 1035.139 491.132 1031 525.191 L 1047 556.191 L 1014 536.191 L 987 556.191 L 1000 525.191 Q 997.403 502.074 991 494.191 Q 984.597 486.309 953 486.191 L 957 457.191 Z " fill="rgb(157,157,157)" vector-effect="non-scaling-stroke" stroke-width="4" stroke="rgb(0,0,0)" stroke-linejoin="miter" stroke-linecap="square" stroke-miterlimit="3"/><path d=" M 844.303 408 L 880.303 320 L 958.303 350 L 949.303 366 L 891.303 347 L 869.303 408" fill="rgb(42,238,238)" vector-effect="non-scaling-stroke" stroke-width="3" stroke="rgb(0,0,0)" stroke-linejoin="miter" stroke-linecap="square" stroke-miterlimit="3"/><path d=" M 762 457.191 Q 718.139 455.25 701 473.191 Q 683.861 491.132 688 525.191 L 672 575 L 705 536.191 L 732 556.191 L 725.5 540.691 L 719 525.191 Q 721.597 502.074 728 494.191 Q 734.403 486.309 766 486.191 L 762 457.191 Z " fill="rgb(157,157,157)" vector-effect="non-scaling-stroke" stroke-width="4" stroke="rgb(0,0,0)" stroke-linejoin="miter" stroke-linecap="square" stroke-miterlimit="3"/><path d=" M 859.5 391 Q 821.694 391 752 387 L 791 618 L 930 618 L 967 387 Q 897.306 391 859.5 391 Z " fill="rgb(255,255,255)" vector-effect="non-scaling-stroke" stroke-width="4" stroke="rgb(0,0,0)" stroke-linejoin="miter" stroke-linecap="square" stroke-miterlimit="3"/><clipPath id="_clipPath_K5BecctIqKBbeaPsBr1BjZxUhIk6rYbi"><path d=" M 859.5 391 Q 821.694 391 752 387 L 791 618 L 930 618 L 967 387 Q 897.306 391 859.5 391 Z " fill="rgb(255,255,255)" vector-effect="non-scaling-stroke" stroke-width="4" stroke="rgb(0,0,0)" stroke-linejoin="miter" stroke-linecap="square" stroke-miterlimit="3"/></clipPath><g clip-path="url(#_clipPath_K5BecctIqKBbeaPsBr1BjZxUhIk6rYbi)"><path d=" M 762 505 C 769.5 510.167 811.583 513.667 854.125 513 C 896.667 512.333 942.333 528.833 957 522 Q 971.667 515.167 950 697 L 769 679 L 748 565 Q 754.5 499.833 762 505 Z " fill="rgb(200,156,93)"/></g><path d=" M 859.5 391 Q 821.694 391 752 387 L 791 618 L 930 618 L 967 387 Q 897.306 391 859.5 391 Z " fill="transparent" vector-effect="non-scaling-stroke" stroke-width="4" stroke="rgb(0,0,0)" stroke-linejoin="miter" stroke-linecap="square" stroke-miterlimit="3"/><circle vector-effect="non-scaling-stroke" cx="804.73997708688" cy="606.3484393317193" r="6.651560668280695" fill="rgb(77,77,77)"/><circle vector-effect="non-scaling-stroke" cx="894.6515606682807" cy="609.9546820048421" r="6.651560668280695" fill="rgb(77,77,77)"/><circle vector-effect="non-scaling-stroke" cx="844.6062426731228" cy="607.3031213365614" r="6.651560668280695" fill="rgb(77,77,77)"/><circle vector-effect="non-scaling-stroke" cx="872.6080424856253" cy="606.3484393317193" r="6.651560668280695" fill="rgb(77,77,77)"/><circle vector-effect="non-scaling-stroke" cx="907.9546820048421" cy="590" r="6.651560668280695" fill="rgb(77,77,77)"/><circle vector-effect="non-scaling-stroke" cx="824.6515606682807" cy="609.9546820048421" r="6.651560668280695" fill="rgb(77,77,77)"/><circle vector-effect="non-scaling-stroke" cx="865.9564818173448" cy="590" r="6.651560668280695" fill="rgb(77,77,77)"/><circle vector-effect="non-scaling-stroke" cx="831.3031213365614" cy="590" r="6.651560668280695" fill="rgb(77,77,77)"/><path d=" M 786.74 425.819 Q 795.638 416.082 804.74 416.001 Q 813.842 415.919 822.74 425.819" fill="none" vector-effect="non-scaling-stroke" stroke-width="8" stroke="rgb(42,238,238)" stroke-linejoin="miter" stroke-linecap="round" stroke-miterlimit="3"/><path d=" M 889.296 425.819 Q 898.194 416.082 907.296 416.001 Q 916.398 415.919 925.296 425.819" fill="none" vector-effect="non-scaling-stroke" stroke-width="8" stroke="rgb(42,238,238)" stroke-linejoin="miter" stroke-linecap="round" stroke-miterlimit="3"/><path d=" M 855.944 610.703 C 855.24 613.48 855.475 636.681 850.43 645.497 C 846.88 651.699 836.175 641.961 835.444 644.846 Q 793.122 643.831 778.077 624.1 C 763.033 604.37 768.382 579.627 770.923 570.979 C 773.463 562.331 797.881 569.795 801.731 574.416 C 805.582 579.037 801.749 597.679 807.239 606.223 Q 812.728 614.767 844.118 618.387 C 843.491 620.86 857.142 605.974 855.944 610.703 Z " fill="rgb(157,157,157)" vector-effect="non-scaling-stroke" stroke-width="4" stroke="rgb(0,0,0)" stroke-linejoin="miter" stroke-linecap="square" stroke-miterlimit="3"/><path d=" M 861.492 610.944 C 861.953 613.771 859.708 636.865 863.971 646.085 C 866.97 652.571 878.479 643.797 878.957 646.735 Q 921.208 649.39 937.905 631.037 C 954.603 612.684 951.417 587.571 949.635 578.736 C 947.853 569.9 922.881 575.22 918.644 579.491 C 914.408 583.761 916.611 602.665 910.402 610.701 Q 904.193 618.737 872.608 619.624 C 873.018 622.142 860.708 606.128 861.492 610.944 Z " fill="rgb(157,157,157)" vector-effect="non-scaling-stroke" stroke-width="4" stroke="rgb(0,0,0)" stroke-linejoin="miter" stroke-linecap="square" stroke-miterlimit="3"/><path d=" M 822 464 Q 820.942 484.5 863.971 479 Q 907 473.5 896.556 457.191" fill="none" vector-effect="non-scaling-stroke" stroke-width="8" stroke="rgb(42,238,238)" stroke-linejoin="miter" stroke-linecap="round" stroke-miterlimit="3"/></g><g><path d=" M 692.01 517.314 Q 682.981 520.108 666.041 524.305 L 692.431 576.59 L 725.627 566.315 L 717.387 508.412 Q 701.039 514.519 692.01 517.314 Z " fill="rgb(255,255,255)" vector-effect="non-scaling-stroke" stroke-width="1" stroke="rgb(0,0,0)" stroke-linejoin="miter" stroke-linecap="square" stroke-miterlimit="3"/><clipPath id="_clipPath_J7sotPxx69E6fMsm6qEsi72zHIDRSjDH"><path d=" M 692.01 517.314 Q 682.981 520.108 666.041 524.305 L 692.431 576.59 L 725.627 566.315 L 717.387 508.412 Q 701.039 514.519 692.01 517.314 Z " fill="rgb(255,255,255)" vector-effect="non-scaling-stroke" stroke-width="1" stroke="rgb(0,0,0)" stroke-linejoin="miter" stroke-linecap="square" stroke-miterlimit="3"/></clipPath><g clip-path="url(#_clipPath_J7sotPxx69E6fMsm6qEsi72zHIDRSjDH)"><path d=" M 677.152 551.747 C 679.325 552.426 689.634 550.151 699.745 546.847 C 709.855 543.543 721.981 544.108 724.979 541.392 Q 727.976 538.676 736.243 583.703 L 691.686 592.784 L 678.244 567.111 Q 674.979 551.067 677.152 551.747 Z " fill="rgb(200,156,93)"/></g><path d=" M 692.01 517.314 Q 682.981 520.108 666.041 524.305 L 692.431 576.59 L 725.627 566.315 L 717.387 508.412 Q 701.039 514.519 692.01 517.314 Z " fill="transparent" vector-effect="non-scaling-stroke" stroke-width="1" stroke="rgb(0,0,0)" stroke-linejoin="miter" stroke-linecap="square" stroke-miterlimit="3"/><path d=" M 693.262 573.283 C 692.991 572.406 693.482 571.474 694.359 571.203 C 695.236 570.932 696.168 571.423 696.439 572.3 C 696.711 573.176 696.219 574.109 695.343 574.38 C 694.466 574.651 693.534 574.16 693.262 573.283 Z " fill="rgb(77,77,77)"/><path d=" M 715.002 567.498 C 714.73 566.621 715.222 565.689 716.099 565.418 C 716.975 565.146 717.907 565.638 718.179 566.515 C 718.45 567.391 717.959 568.323 717.082 568.595 C 716.205 568.866 715.273 568.375 715.002 567.498 Z " fill="rgb(77,77,77)"/><path d=" M 702.854 570.564 C 702.582 569.687 703.074 568.755 703.951 568.484 C 704.827 568.213 705.76 568.704 706.031 569.581 C 706.302 570.457 705.811 571.39 704.934 571.661 C 704.057 571.932 703.125 571.441 702.854 570.564 Z " fill="rgb(77,77,77)"/><path d=" M 709.471 568.266 C 709.199 567.389 709.691 566.457 710.568 566.186 C 711.444 565.915 712.376 566.406 712.648 567.283 C 712.919 568.16 712.428 569.092 711.551 569.363 C 710.674 569.634 709.742 569.143 709.471 568.266 Z " fill="rgb(77,77,77)"/><path d=" M 716.704 561.749 C 716.432 560.872 716.924 559.94 717.801 559.669 C 718.677 559.397 719.609 559.889 719.881 560.766 C 720.152 561.642 719.661 562.574 718.784 562.846 C 717.907 563.117 716.975 562.626 716.704 561.749 Z " fill="rgb(77,77,77)"/><path d=" M 698.284 572.672 C 698.013 571.796 698.504 570.864 699.381 570.592 C 700.258 570.321 701.19 570.812 701.461 571.689 C 701.733 572.566 701.241 573.498 700.364 573.769 C 699.488 574.041 698.556 573.549 698.284 572.672 Z " fill="rgb(77,77,77)"/><path d=" M 706.674 564.854 C 706.402 563.977 706.894 563.045 707.77 562.773 C 708.647 562.502 709.579 562.993 709.851 563.87 C 710.122 564.747 709.631 565.679 708.754 565.95 C 707.877 566.222 706.945 565.73 706.674 564.854 Z " fill="rgb(77,77,77)"/><path d=" M 698.398 567.415 C 698.126 566.538 698.618 565.606 699.495 565.335 C 700.371 565.064 701.303 565.555 701.575 566.432 C 701.846 567.309 701.355 568.241 700.478 568.512 C 699.601 568.783 698.669 568.292 698.398 567.415 Z " fill="rgb(77,77,77)"/><path d=" M 689.487 517.571 L 691.579 493.894 L 712.425 495.292 L 711.458 499.779 L 696.202 499.529 L 695.458 515.723" fill="rgb(42,238,238)" vector-effect="non-scaling-stroke" stroke-width="0.75" stroke="rgb(0,0,0)" stroke-linejoin="miter" stroke-linecap="square" stroke-miterlimit="3"/><path d=" M 677.207 531.008 Q 678.612 528.025 680.78 527.332 Q 682.948 526.64 685.805 528.347" fill="none" vector-effect="non-scaling-stroke" stroke-width="2" stroke="rgb(42,238,238)" stroke-linejoin="miter" stroke-linecap="round" stroke-miterlimit="3"/><path d=" M 701.7 523.427 Q 703.105 520.444 705.273 519.751 Q 707.44 519.059 710.297 520.765" fill="none" vector-effect="non-scaling-stroke" stroke-width="2" stroke="rgb(42,238,238)" stroke-linejoin="miter" stroke-linecap="round" stroke-miterlimit="3"/><path d=" M 688.45 537.52 Q 689.713 542.494 699.583 537.999 Q 709.452 533.505 705.752 530.382" fill="none" vector-effect="non-scaling-stroke" stroke-width="2" stroke="rgb(42,238,238)" stroke-linejoin="miter" stroke-linecap="round" stroke-miterlimit="3"/></g><g clip-path="url(#_clipPath_m7aRg0x7GcN33azaLILZjIL4kQ1GdJ6t)"><text transform="matrix(0.598,0.801,-0.801,0.598,722.33,929.706)" style="font-family:'Comic Neue';font-weight:700;font-size:60px;font-style:normal;fill:#000000;stroke:none;">b</text><text transform="matrix(0.712,0.702,-0.702,0.712,741.71,954.559)" style="font-family:'Comic Neue';font-weight:700;font-size:60px;font-style:normal;fill:#000000;stroke:none;">o</text><text transform="matrix(0.801,0.598,-0.598,0.801,764.274,975.851)" style="font-family:'Comic Neue';font-weight:700;font-size:60px;font-style:normal;fill:#000000;stroke:none;">b</text><text transform="matrix(0.879,0.477,-0.477,0.879,790.031,993.977)" style="font-family:'Comic Neue';font-weight:700;font-size:60px;font-style:normal;fill:#000000;stroke:none;">a</text><text transform="matrix(0.955,0.297,-0.297,0.955,816.969,1008.48)" style="font-family:'Comic Neue';font-weight:700;font-size:60px;font-style:normal;fill:#000000;stroke:none;">m</text><text transform="matrix(0.995,0.1,-0.1,0.995,862.96,1021.445)" style="font-family:'Comic Neue';font-weight:700;font-size:60px;font-style:normal;fill:#000000;stroke:none;">a</text><text transform="matrix(0.999,-0.05,0.05,0.999,893.337,1024.616)" style="font-family:'Comic Neue';font-weight:700;font-size:60px;font-style:normal;fill:#000000;stroke:none;">b</text><text transform="matrix(0.981,-0.192,0.192,0.981,924.865,1023.187)" style="font-family:'Comic Neue';font-weight:700;font-size:60px;font-style:normal;fill:#000000;stroke:none;">o</text><text transform="matrix(0.955,-0.297,0.297,0.955,955.221,1016.808)" style="font-family:'Comic Neue';font-weight:700;font-size:60px;font-style:normal;fill:#000000;stroke:none;">b</text><text transform="matrix(0.901,-0.434,0.434,0.901,984.914,1006.338)" style="font-family:'Comic Neue';font-weight:700;font-size:60px;font-style:normal;fill:#000000;stroke:none;">.</text><text transform="matrix(0.855,-0.519,0.519,0.855,995.027,1002.207)" style="font-family:'Comic Neue';font-weight:700;font-size:60px;font-style:normal;fill:#000000;stroke:none;">c</text><text transform="matrix(0.801,-0.598,0.598,0.801,1019.108,987.515)" style="font-family:'Comic Neue';font-weight:700;font-size:60px;font-style:normal;fill:#000000;stroke:none;">o</text><text transform="matrix(0.673,-0.74,0.74,0.673,1043.925,968.738)" style="font-family:'Comic Neue';font-weight:700;font-size:60px;font-style:normal;fill:#000000;stroke:none;">m</text></g><defs><clipPath id="_clipPath_m7aRg0x7GcN33azaLILZjIL4kQ1GdJ6t"><rect x="0" y="0" width="349.186" height="114.814" transform="matrix(1,0,0,1,685.999,597.58)"/></clipPath></defs></svg>